<?xml version="1.0" standalone="no"?>
<!DOCTYPE svg PUBLIC "-//W3C//DTD SVG 20010904//EN"
 "http://www.w3.org/TR/2001/REC-SVG-20010904/DTD/svg10.dtd">
<svg version="1.0" xmlns="http://www.w3.org/2000/svg"
 width="920.000000pt" height="920.000000pt" viewBox="0 0 920.000000 920.000000"
 preserveAspectRatio="xMidYMid meet">
<metadata>
Created by potrace 1.14, written by Peter Selinger 2001-2017
</metadata>
<g transform="translate(0.000000,920.000000) scale(0.100000,-0.100000)"
fill="#000000" stroke="none">
<path d="M4170 8338 c-252 -35 -486 -92 -720 -175 -190 -68 -203 -73 -235 -88
-16 -8 -57 -26 -90 -41 -72 -32 -133 -62 -200 -99 -27 -15 -70 -39 -95 -52
-25 -14 -52 -31 -61 -39 -8 -8 -19 -14 -23 -14 -4 0 -27 -13 -51 -30 -24 -16
-48 -30 -53 -30 -5 0 -15 -7 -23 -16 -7 -8 -42 -35 -78 -58 -36 -24 -75 -53
-85 -64 -11 -12 -23 -22 -27 -22 -5 0 -19 -8 -31 -19 -244 -203 -395 -348
-526 -506 -41 -49 -84 -101 -96 -115 -11 -14 -25 -32 -31 -41 -12 -19 -69 -96
-90 -122 -8 -9 -15 -21 -15 -25 0 -4 -14 -23 -30 -42 -16 -19 -30 -39 -30 -44
0 -5 -10 -23 -23 -40 -12 -17 -28 -42 -35 -56 -7 -14 -33 -59 -57 -100 -48
-80 -155 -294 -160 -320 -2 -8 -15 -37 -29 -64 -14 -27 -24 -51 -22 -53 2 -3
-9 -33 -25 -68 -15 -34 -30 -73 -33 -86 -2 -13 -14 -49 -26 -79 -12 -30 -23
-66 -25 -81 -2 -14 -15 -63 -29 -108 -14 -45 -26 -90 -26 -99 0 -10 -11 -67
-25 -127 -14 -61 -28 -137 -30 -170 -3 -33 -10 -100 -16 -150 -8 -72 -8 -745
1 -835 2 -15 161 -58 300 -80 36 -6 121 -22 190 -35 69 -14 197 -39 285 -55
88 -17 168 -35 178 -41 38 -21 275 -29 602 -20 182 5 337 12 346 16 11 4 18
23 22 56 9 72 39 132 99 195 51 54 52 56 33 70 -87 63 -157 163 -176 252 -9
45 -16 56 -55 83 -55 38 -164 173 -204 253 -18 36 -30 75 -30 99 0 33 -3 38
-17 32 -87 -37 -201 -42 -261 -11 -33 17 -109 97 -139 146 -12 19 -26 53 -32
75 -10 40 -12 41 -83 62 -131 39 -196 121 -185 235 3 29 12 85 19 123 12 61
12 75 -1 108 -12 33 -13 50 -3 108 7 39 21 87 32 108 41 82 130 141 211 141
43 0 52 17 22 41 -37 31 -73 102 -73 146 0 61 33 121 76 139 26 11 34 20 34
39 0 50 31 102 93 157 34 30 72 60 85 67 33 18 113 41 142 41 18 0 35 14 58
44 17 24 32 48 32 54 0 18 59 61 93 67 18 4 57 7 87 9 43 2 57 7 65 22 6 11
25 43 43 70 17 28 32 56 32 62 0 5 21 28 46 51 63 55 153 84 269 86 50 1 100
7 112 13 54 29 148 0 272 -83 19 -13 38 -22 42 -19 5 3 6 32 2 64 l-6 60 28 0
c16 0 77 -12 137 -26 l108 -26 44 21 c41 20 47 21 98 7 119 -31 224 -106 289
-207 17 -27 33 -49 34 -49 7 0 -19 78 -40 120 -32 63 -59 84 -140 109 -107 34
-241 104 -336 175 -71 54 -127 110 -216 217 -24 29 -42 118 -31 158 36 129 89
171 218 171 l75 0 -42 -19 c-45 -21 -93 -89 -93 -133 0 -48 30 -125 66 -166
49 -58 97 -84 254 -137 187 -64 277 -114 370 -205 86 -84 117 -146 127 -253 5
-49 3 -61 -14 -80 -12 -12 -35 -51 -53 -87 -42 -84 -68 -120 -86 -120 -8 0
-19 12 -25 28 -28 73 -70 141 -125 201 -64 69 -123 107 -212 136 -51 16 -54
16 -93 -4 l-41 -22 -105 26 c-57 14 -116 25 -130 25 -25 0 -26 -1 -19 -60 5
-40 3 -60 -4 -60 -6 0 -39 18 -73 40 -113 71 -177 87 -228 59 -14 -8 -62 -14
-114 -15 -110 -1 -180 -24 -241 -77 -24 -21 -44 -42 -44 -47 0 -11 62 -50 185
-115 154 -81 199 -112 332 -232 183 -163 294 -250 358 -279 l58 -27 93 23 c52
13 94 25 94 26 0 2 -39 24 -87 50 -49 26 -108 65 -133 85 -25 21 -81 54 -125
74 -52 24 -98 54 -130 85 -34 33 -89 69 -172 110 -108 55 -211 125 -200 137 3
2 31 -8 63 -22 33 -15 104 -38 159 -51 55 -14 111 -32 123 -41 13 -8 26 -12
28 -10 10 10 -177 141 -230 160 -10 4 -16 10 -13 14 9 8 79 -23 147 -65 30
-19 111 -89 179 -156 118 -115 131 -124 90 -66 -29 43 -81 141 -77 146 6 5 53
-47 105 -116 74 -99 222 -230 303 -267 77 -36 107 -43 189 -43 71 0 93 4 126
23 44 25 154 157 213 254 55 92 56 91 101 -82 11 -44 22 -93 24 -110 3 -25 11
-32 58 -51 121 -46 203 -98 285 -179 45 -44 88 -90 96 -103 32 -48 62 -25 343
270 84 88 168 158 190 158 25 0 -106 -159 -254 -309 -64 -64 -80 -86 -70 -93
19 -13 180 -4 210 12 13 7 42 29 64 48 32 27 65 42 160 68 171 48 401 92 390
74 -16 -25 -297 -148 -494 -216 l-83 -29 113 -22 112 -23 51 25 c114 55 383
94 536 76 153 -17 190 -23 190 -31 0 -16 -63 -22 -320 -30 -219 -7 -276 -11
-330 -28 l-65 -20 30 -11 c17 -7 68 -30 115 -51 47 -21 120 -46 162 -56 68
-16 76 -20 67 -36 -8 -14 -2 -21 33 -39 119 -60 279 -207 354 -323 35 -55 -5
-21 -65 56 -67 85 -149 158 -256 227 -38 24 -72 47 -75 50 -15 17 -314 133
-390 152 -62 15 -394 19 -447 6 -58 -15 -37 11 40 48 69 35 117 68 72 50 -38
-15 -140 -33 -245 -44 -57 -6 -108 -15 -112 -19 -4 -4 -1 -25 6 -47 8 -22 17
-62 21 -88 7 -44 10 -48 29 -42 88 29 258 22 381 -15 97 -29 131 -46 176 -87
22 -20 41 -34 43 -32 1 2 15 20 30 41 26 35 92 76 103 64 17 -16 28 -156 13
-156 -13 0 -40 54 -40 80 0 33 -17 23 -34 -20 -16 -39 -15 -40 20 -107 19 -38
48 -106 63 -153 28 -82 30 -85 71 -100 l42 -15 27 33 c15 17 32 32 38 32 11 0
50 -59 88 -134 22 -42 120 -116 154 -116 14 0 32 18 55 54 19 30 39 57 45 61
6 3 27 1 46 -6 49 -18 68 6 61 79 -5 57 4 65 47 38 38 -24 124 -39 184 -31
l56 7 -6 141 c-4 78 -7 184 -7 235 l0 92 -42 0 c-50 0 -118 17 -118 29 0 5 13
14 30 21 35 14 110 93 110 115 0 23 -48 37 -107 33 -29 -3 -53 -3 -53 -1 0 2
13 18 30 36 36 38 36 40 9 83 -14 23 -42 44 -87 66 -66 33 -68 33 -209 32 -78
0 -140 3 -137 8 3 4 24 18 47 29 108 55 173 123 147 154 -7 8 -8 15 -3 15 15
0 51 -43 67 -80 16 -39 47 -70 91 -93 45 -23 122 -109 130 -146 7 -35 54 -71
91 -71 11 0 32 -12 46 -27 25 -26 26 -31 16 -73 -5 -25 -17 -60 -26 -78 -15
-32 -15 -43 7 -170 14 -77 26 -197 29 -273 5 -157 15 -142 -108 -165 -152 -27
-154 -28 -167 -54 -7 -14 -13 -33 -13 -43 0 -15 6 -17 33 -12 160 27 621 47
762 33 105 -10 292 -44 410 -74 95 -25 291 -100 301 -116 3 -4 10 -8 15 -8 12
0 7 44 -23 200 -11 57 -20 114 -20 125 -1 27 -52 228 -85 335 -15 47 -26 88
-25 92 1 4 -9 33 -23 64 -14 31 -25 63 -25 71 0 8 -13 41 -30 75 -16 33 -30
64 -30 70 0 10 -32 80 -97 211 -68 138 -81 162 -91 173 -5 6 -18 26 -27 45
-10 19 -28 49 -42 67 -13 17 -20 32 -16 32 4 0 3 4 -3 8 -6 4 -23 27 -37 52
-15 25 -38 58 -52 74 -14 16 -25 35 -25 43 0 7 -4 13 -8 13 -4 0 -28 28 -52
63 -88 126 -317 375 -457 498 -59 52 -119 106 -134 122 -15 15 -32 27 -38 27
-5 0 -14 6 -18 13 -8 14 -246 187 -304 222 -18 11 -51 31 -74 44 -62 38 -117
68 -155 88 -19 9 -46 25 -60 34 -34 22 -226 109 -335 151 -149 58 -260 98
-273 98 -7 0 -47 11 -90 24 -89 28 -318 77 -477 102 -88 14 -185 18 -485 20
-330 2 -393 0 -520 -18z m182 -471 c58 -24 132 -78 244 -177 102 -91 152 -153
239 -300 21 -36 40 -67 42 -69 1 -2 29 20 60 50 32 30 81 70 108 89 28 19 86
61 130 94 99 73 155 98 276 125 197 42 257 39 336 -18 40 -29 96 -122 106
-177 10 -52 -10 -153 -37 -194 -31 -48 -88 -75 -265 -126 -103 -30 -160 -53
-240 -99 -99 -56 -108 -63 -134 -115 -29 -59 -48 -160 -29 -160 6 0 20 15 31
34 35 57 77 70 221 70 165 -1 423 -15 413 -23 -7 -6 -198 -41 -243 -45 -8 0
-15 7 -15 16 0 9 -3 20 -7 24 -14 13 -153 -63 -201 -110 -79 -80 -150 -216
-171 -329 -10 -55 -36 -46 -53 18 -8 28 -19 66 -24 85 -50 181 -65 420 -32
516 34 101 104 177 213 228 69 32 126 37 260 21 125 -15 240 93 240 225 0 46
-4 54 -48 100 -47 49 -49 50 -108 50 -83 0 -163 -23 -279 -80 -233 -114 -366
-284 -396 -505 -15 -115 -22 -127 -39 -73 -50 164 -139 346 -219 448 -130 166
-302 320 -447 402 -51 29 -94 56 -94 60 0 7 75 -18 162 -55z m-385 -932 c14
-27 45 -78 69 -113 45 -65 60 -99 50 -110 -9 -8 -60 53 -97 116 -31 53 -79
167 -79 186 1 16 28 -22 57 -79z m241 -128 c28 -47 68 -118 88 -158 20 -41 46
-87 57 -103 20 -28 20 -29 2 -42 -10 -8 -23 -14 -28 -14 -18 0 -86 84 -127
159 -24 42 -60 102 -81 134 -22 32 -39 63 -39 69 0 16 30 -12 129 -120 l33
-37 -23 40 c-55 98 -67 121 -74 144 -12 40 9 16 63 -72z m41 9 c-1 -15 -28 46
-28 64 0 8 6 0 14 -19 8 -18 15 -38 14 -45z m1693 -8 c2 -5 16 -4 33 2 35 14
136 17 155 5 8 -5 -10 -14 -52 -24 -36 -9 -84 -29 -107 -44 -22 -15 -44 -27
-48 -27 -5 0 -8 29 -8 65 0 54 2 62 12 49 7 -9 14 -21 15 -26z m470 -117 c50
-19 37 -28 -20 -15 -61 15 -123 18 -159 8 -27 -7 -30 -24 -5 -25 11 0 8 -3 -8
-8 -67 -21 -192 -79 -252 -118 -69 -44 -91 -44 -39 -1 27 23 46 33 203 108 45
21 68 38 72 53 5 22 8 22 93 16 48 -4 100 -12 115 -18z m-843 -83 c-29 -40
-54 -75 -56 -77 -2 -2 -6 -2 -9 2 -3 3 20 40 51 82 31 42 59 75 62 72 2 -3
-19 -38 -48 -79z m166 32 c-10 -11 -73 -58 -140 -105 -85 -59 -147 -112 -200
-171 -43 -47 -90 -91 -106 -99 -46 -24 -45 2 3 53 24 26 59 72 77 102 83 136
145 224 148 213 2 -6 -14 -48 -37 -92 -22 -45 -38 -81 -34 -81 3 0 18 9 32 21
48 37 156 115 211 152 56 39 78 42 46 7z m584 -60 c-9 -5 -63 -25 -120 -44
-130 -42 -271 -96 -283 -107 -18 -17 2 -20 31 -6 62 33 214 76 315 91 121 18
181 10 77 -10 -35 -7 -89 -19 -119 -26 -51 -12 -53 -13 -25 -19 34 -7 30 -9
-60 -34 -118 -34 -220 -66 -242 -77 -11 -5 -26 -7 -32 -4 -6 4 -21 2 -33 -5
-22 -12 -22 -12 -5 12 10 13 25 37 35 53 9 17 26 39 37 51 41 43 295 123 425
133 12 1 12 0 -1 -8z m396 -511 c60 -6 117 -13 125 -16 24 -7 -2 -18 -105 -43
-74 -19 -107 -22 -185 -17 -101 6 -225 35 -222 52 1 6 34 13 74 17 40 4 80 10
88 12 30 8 116 6 225 -5z m75 -236 c125 -23 161 -33 155 -43 -5 -9 -43 -6
-129 11 -27 5 -51 8 -52 6 -2 -2 32 -28 76 -58 77 -52 94 -69 68 -69 -18 0
-114 46 -148 70 -15 11 -35 18 -43 15 -8 -4 -27 9 -46 31 -42 47 -31 58 14 14
46 -44 58 -30 14 17 -25 26 -29 34 -14 29 11 -4 58 -14 105 -23z m-325 -105
c51 -57 89 -123 80 -139 -4 -5 -21 10 -38 33 -17 24 -57 74 -89 112 -32 39
-58 74 -58 79 0 15 56 -31 105 -85z m315 -25 c25 -17 70 -43 100 -58 54 -27
109 -78 110 -102 0 -8 -12 -13 -29 -13 -42 0 -241 177 -241 214 0 8 3 8 8 0 4
-6 27 -24 52 -41z"/>
<path d="M5870 6375 c-16 -19 0 -19 26 0 16 12 16 14 3 15 -9 0 -22 -7 -29
-15z"/>
<path d="M2786 6850 c-33 -10 -66 -38 -66 -55 0 -22 47 -45 133 -66 45 -11 86
-25 92 -30 6 -6 -57 -9 -171 -8 -233 1 -261 -6 -354 -95 l-50 -48 45 -34 c24
-19 77 -50 117 -69 l73 -34 -130 6 c-85 3 -145 1 -172 -6 -40 -11 -43 -14 -43
-47 0 -95 123 -208 249 -230 75 -12 112 -25 105 -36 -4 -7 -65 -8 -193 -3
-204 7 -226 3 -290 -51 -65 -54 -96 -159 -67 -227 14 -35 14 -43 -1 -100 -9
-34 -16 -90 -17 -125 -1 -60 1 -65 32 -93 27 -25 41 -29 87 -29 31 0 72 7 92
15 19 8 41 15 47 15 7 0 17 -26 24 -61 12 -67 45 -119 96 -150 24 -15 44 -19
87 -17 68 5 109 32 151 100 17 27 35 47 41 45 7 -2 27 -29 45 -60 18 -31 37
-57 42 -57 6 0 31 15 57 33 27 19 56 37 65 40 19 7 53 -23 64 -55 8 -27 20
-22 54 21 18 22 60 54 93 72 34 18 91 52 127 76 60 41 71 44 115 33 6 -1 22
-2 36 -1 25 1 28 6 38 64 21 122 91 260 163 322 l41 35 -28 52 c-45 86 -47 86
-81 23 -16 -31 -39 -66 -51 -77 l-23 -21 0 21 c0 25 37 128 58 160 8 13 23 27
33 33 26 13 78 -35 118 -111 32 -60 32 -60 59 -46 15 8 42 21 61 28 24 9 38
25 52 56 11 24 19 52 19 63 0 14 7 19 25 19 23 0 24 -2 18 -51 -7 -62 10 -64
42 -6 11 20 24 37 29 37 5 0 21 -14 35 -30 17 -20 39 -33 61 -36 l35 -6 53
105 c42 85 64 116 109 156 31 28 63 51 69 51 7 0 16 5 20 12 10 16 -79 4 -241
-31 -71 -16 -187 -36 -257 -45 -71 -9 -185 -23 -255 -32 -151 -19 -239 -46
-387 -120 -205 -103 -321 -173 -463 -278 -45 -34 -111 -79 -148 -101 -37 -22
-95 -70 -131 -107 -35 -38 -66 -68 -69 -68 -14 0 -2 38 20 64 14 16 23 31 21
33 -2 2 -43 -10 -92 -26 -51 -16 -125 -32 -171 -36 -77 -7 -83 -6 -83 12 0 24
81 102 144 138 26 15 98 52 158 82 60 30 107 57 105 60 -3 2 -45 0 -94 -6 -98
-12 -163 -6 -163 15 0 8 3 14 8 14 4 0 70 11 147 25 77 14 177 30 223 35 45 5
97 14 116 21 42 15 83 5 92 -24 5 -12 7 -25 6 -29 -3 -13 4 -9 65 30 32 21
103 63 158 92 55 29 109 61 120 70 30 26 90 54 183 85 46 15 82 28 80 30 -2 2
-46 14 -98 28 -52 14 -160 45 -240 69 -80 25 -170 51 -200 58 -112 26 -295 81
-305 92 -7 7 48 9 180 8 105 -2 240 2 302 9 l111 12 49 -27 c26 -15 67 -40 90
-55 46 -32 171 -91 253 -121 57 -20 177 -26 206 -10 10 6 -11 25 -83 72 -54
36 -140 100 -190 142 -122 102 -199 154 -300 203 -66 33 -82 37 -77 23 9 -30
-29 -22 -82 17 -27 20 -63 42 -81 50 -35 16 -149 19 -197 5z m453 -250 c64
-21 135 -59 127 -68 -6 -5 -133 23 -176 38 -14 6 -74 17 -134 25 -60 8 -112
17 -114 20 -3 3 50 5 117 5 95 0 135 -4 180 -20z m-349 -296 c148 -41 289
-111 274 -136 -12 -19 -246 -1 -414 32 -208 41 -210 41 -239 56 -31 17 -24 17
54 4 75 -13 327 -40 368 -40 55 0 16 18 -123 56 -74 20 -146 43 -160 51 -42
24 129 8 240 -23z m410 -320 c0 -10 -238 -255 -293 -302 -28 -24 -53 -40 -55
-34 -13 41 185 262 283 314 52 28 65 32 65 22z m-1011 -90 c2 -2 -19 -4 -48
-4 -32 0 -50 4 -46 10 5 9 83 4 94 -6z m964 -1 c-8 -23 -162 -251 -174 -259
-16 -9 -10 8 22 65 36 65 91 144 128 184 29 32 33 33 24 10z m-435 -102 c-18
-21 -73 -87 -122 -145 -49 -58 -90 -106 -91 -106 -1 0 0 11 2 24 7 36 102 155
171 214 34 28 65 52 68 52 3 0 -9 -18 -28 -39z"/>
<path d="M4699 6356 c-2 -2 -27 -6 -54 -9 -28 -2 -65 -12 -82 -21 -18 -9 -40
-16 -50 -16 -28 0 -131 -82 -172 -138 -109 -144 -124 -402 -33 -547 94 -148
224 -223 389 -223 139 0 240 44 334 146 55 60 103 145 136 242 27 81 24 226
-7 305 -28 75 -118 167 -204 209 -69 33 -240 68 -257 52z m47 -105 c-3 -4 -30
-11 -61 -14 -73 -7 -148 -43 -213 -102 -56 -50 -76 -81 -104 -155 -25 -69 -23
-9 3 71 39 119 66 149 165 184 69 24 222 36 210 16z"/>
<path d="M3980 5934 c-8 -3 -44 -14 -80 -26 -132 -41 -220 -114 -278 -230 -85
-169 -58 -369 69 -503 29 -31 68 -65 88 -77 20 -12 39 -27 43 -32 4 -6 8 -8 8
-5 0 4 27 -2 61 -12 71 -22 181 -25 254 -5 l50 13 -3 81 c-4 110 13 227 42
283 21 40 22 48 9 65 -30 41 -85 146 -105 201 -12 33 -23 98 -27 153 l-6 95
-55 2 c-30 1 -62 0 -70 -3z m80 -78 c0 -2 -33 -14 -72 -26 -40 -12 -89 -30
-108 -40 -57 -29 -129 -99 -162 -157 -17 -30 -33 -52 -35 -49 -11 11 11 69 47
125 45 69 102 107 200 133 61 16 130 23 130 14z"/>
<path d="M5427 5860 c-84 -22 -131 -64 -143 -129 -4 -20 -21 -65 -39 -101 -47
-96 -50 -113 -21 -163 45 -78 60 -136 60 -237 0 -52 -3 -104 -8 -116 -20 -53
128 -124 256 -124 128 0 298 83 382 186 70 85 91 149 91 274 0 92 -3 111 -25
155 -57 114 -220 227 -360 250 -60 10 -161 13 -193 5z m60 -95 c-44 -7 -101
-24 -128 -38 -53 -26 -62 -22 -26 10 40 36 61 42 147 42 l85 -1 -78 -13z m-95
-71 c-24 -20 -54 -53 -67 -73 -32 -46 -32 -30 0 24 13 24 39 52 57 64 52 33
57 24 10 -15z"/>
<path d="M5055 5389 c-59 -46 -130 -76 -224 -95 -74 -15 -95 -15 -183 -4 -54
7 -101 17 -104 22 -3 5 -9 6 -14 3 -5 -3 -25 2 -44 12 -20 9 -39 14 -42 10 -3
-3 -9 -35 -11 -71 -3 -36 -9 -66 -14 -66 -15 0 -21 41 -14 98 5 43 2 62 -9 77
-14 19 -16 19 -31 4 -35 -35 -50 -111 -44 -221 5 -95 8 -109 44 -178 85 -162
206 -237 375 -234 89 2 136 17 214 68 139 93 241 294 221 437 -9 66 -48 163
-66 166 -8 2 -32 -11 -54 -28z"/>
<path d="M3380 5399 c-19 -5 -40 -11 -46 -12 -7 -2 -18 -7 -25 -13 -8 -5 -32
-18 -53 -29 -148 -75 -238 -261 -209 -431 22 -127 104 -246 212 -307 66 -37
66 -38 157 -44 l72 -5 4 78 c3 49 13 101 27 136 30 78 96 175 137 201 19 12
34 25 34 29 0 4 -37 44 -82 90 -60 60 -91 101 -113 148 -33 72 -38 77 -63 75
-73 -8 -186 -95 -237 -180 -14 -25 -27 -45 -29 -45 -7 0 11 66 27 96 19 38 98
111 135 125 15 6 50 17 77 23 41 10 49 15 47 31 -7 49 -10 50 -72 34z"/>
<path d="M6115 5388 c-3 -7 -7 -29 -9 -48 -14 -102 -105 -252 -186 -305 -31
-20 -76 -82 -67 -91 3 -3 25 0 48 6 24 7 55 14 69 17 13 2 27 8 30 12 3 4 67
31 142 61 l137 53 3 41 c6 76 -29 151 -105 234 -32 33 -55 41 -62 20z"/>
<path d="M2846 5259 c-14 -11 -36 -38 -46 -60 -45 -88 -35 -189 30 -286 40
-61 98 -128 105 -121 2 2 -3 46 -11 98 -17 101 -13 167 12 229 14 34 13 42 -3
86 -10 26 -27 54 -39 62 -18 12 -24 11 -48 -8z"/>
<path d="M6632 5273 c-15 -6 -46 -63 -35 -63 18 0 103 34 103 42 0 8 -34 28
-47 27 -4 0 -14 -3 -21 -6z"/>
<path d="M6336 5231 c-21 -23 -15 -49 17 -78 l22 -21 70 22 70 23 -45 20 c-25
11 -51 27 -59 36 -18 23 -54 21 -75 -2z"/>
<path d="M5222 4972 c-7 -2 -12 -10 -12 -17 0 -12 80 -149 97 -166 19 -19 379
86 398 115 16 25 1 27 -66 10 -110 -28 -253 -11 -368 45 -21 9 -42 16 -49 13z"/>
<path d="M3800 4924 c-111 -79 -164 -160 -180 -277 -12 -83 -4 -158 27 -237
24 -63 41 -90 100 -158 l28 -33 65 26 c36 15 76 31 90 35 96 33 374 140 380
147 4 4 4 39 1 77 -7 76 3 201 20 254 10 31 8 38 -20 77 -17 24 -31 48 -31 53
0 5 -11 21 -25 36 -25 27 -71 34 -86 13 -14 -19 -180 -15 -304 7 -22 4 -40 -2
-65 -20z m110 -41 c0 -5 -21 -21 -48 -38 -91 -58 -152 -130 -152 -180 0 -8 -5
-15 -11 -15 -7 0 -8 12 -4 33 18 82 70 146 150 183 55 25 65 28 65 17z"/>
<path d="M6150 4822 c0 -4 -13 -22 -30 -40 -31 -35 -46 -74 -35 -91 11 -19
134 87 135 115 0 7 -7 15 -16 18 -22 8 -54 7 -54 -2z"/>
<path d="M5090 4780 c-42 -38 -149 -99 -181 -103 -8 -2 -19 -6 -25 -9 -51 -33
-335 -31 -368 2 -6 6 -18 10 -27 10 -9 0 -22 7 -29 15 -7 8 -17 12 -22 9 -9
-6 -10 -139 -1 -200 l5 -32 39 17 c35 14 39 19 34 41 -14 54 -17 96 -6 80 6
-8 13 -34 17 -56 l6 -41 81 34 c45 19 89 37 97 40 8 3 56 21 105 40 124 47
181 67 245 86 117 34 130 39 130 44 0 9 -41 63 -48 63 -4 0 -27 -18 -52 -40z"/>
<path d="M7149 4664 c-25 -14 -53 -38 -63 -54 -9 -16 -22 -27 -29 -24 -13 5
-32 -63 -44 -157 -6 -46 19 -96 55 -111 15 -5 35 -14 45 -19 47 -25 187 39
187 85 0 28 -21 27 -84 -4 -51 -26 -71 -31 -99 -26 -38 7 -47 21 -47 69 0 42
9 53 46 55 93 6 174 67 174 129 0 26 -7 37 -37 58 -46 31 -47 31 -104 -1z m81
-52 c0 -16 -45 -50 -73 -58 -27 -6 -28 -5 -16 13 21 34 89 68 89 45z"/>
<path d="M6662 4608 c-23 -18 -42 -37 -42 -43 0 -6 -25 -46 -55 -90 l-55 -79
-1 40 c-1 94 -7 156 -17 166 -5 5 -20 8 -33 6 -27 -3 -28 -10 -16 -177 6 -93
21 -131 52 -131 15 0 122 130 157 191 15 25 34 51 42 58 18 15 15 19 40 -70
30 -109 83 -155 146 -129 46 19 110 86 110 115 0 34 -35 34 -61 0 -11 -13 -33
-34 -49 -45 l-30 -21 -24 28 c-22 25 -38 75 -49 151 -4 30 -32 62 -55 62 -10
0 -37 -14 -60 -32z"/>
<path d="M5776 4614 c-20 -19 -20 -28 -1 -44 8 -7 15 -23 15 -36 0 -12 5 -26
10 -29 17 -10 -1 -27 -22 -21 -56 14 -163 -73 -191 -157 l-14 -42 -21 49 c-12
27 -22 51 -22 55 0 3 -9 12 -19 18 -16 10 -24 9 -43 -7 l-23 -19 29 -53 c16
-29 44 -91 61 -137 36 -97 53 -115 84 -87 22 20 28 46 11 46 -16 0 -12 84 6
137 9 26 31 67 50 90 30 37 39 41 84 45 l50 3 6 -35 c3 -19 9 -43 15 -52 5
-10 9 -23 9 -30 1 -38 72 -88 125 -88 67 0 145 80 103 106 -6 4 -19 -2 -29
-14 -27 -34 -65 -45 -99 -27 -37 19 -46 36 -54 103 -6 45 -4 53 11 59 10 3 37
14 60 24 23 11 48 19 56 19 14 0 47 30 47 43 0 12 -52 7 -125 -13 -38 -10 -71
-15 -72 -11 -33 121 -33 121 -58 121 -13 0 -31 -7 -39 -16z"/>
<path d="M7326 4621 c-4 -6 -3 -19 3 -29 11 -20 64 -32 230 -53 85 -11 92 -13
75 -26 -20 -15 -181 -106 -251 -143 -95 -49 -85 -77 29 -78 81 0 205 -21 261
-43 48 -20 115 20 102 61 -8 24 -37 26 -56 4 -8 -10 -20 -13 -38 -8 -14 3 -36
8 -48 9 -12 2 -28 7 -34 11 -7 4 -43 10 -79 14 l-65 6 48 29 c26 17 82 51 124
77 42 26 98 55 125 64 34 11 48 21 48 34 0 23 -19 30 -83 30 -29 0 -113 10
-187 21 -74 12 -149 23 -166 26 -18 3 -35 0 -38 -6z"/>
<path d="M6126 4591 c-7 -11 19 -268 29 -294 4 -10 19 -24 33 -31 30 -16 51
-5 139 78 54 50 64 70 39 79 -13 5 -24 -1 -105 -57 -23 -16 -45 -26 -49 -22
-4 4 -8 59 -8 121 -1 62 -5 118 -8 124 -9 13 -63 15 -70 2z"/>
<path d="M8280 4453 c-20 -57 -24 -92 -27 -221 -2 -118 0 -153 10 -150 27 9
76 438 50 438 -6 0 -21 -30 -33 -67z"/>
<path d="M3237 4483 c-3 -5 -10 -45 -16 -89 -13 -103 3 -231 35 -282 1 -2 46
6 101 17 54 10 121 22 148 26 28 4 69 11 92 17 l42 10 -34 42 c-30 37 -63 100
-103 199 -10 24 -17 28 -49 26 -33 -1 -126 17 -189 36 -12 4 -24 3 -27 -2z"/>
<path d="M5287 4354 c-3 -4 -21 -8 -39 -10 -103 -8 -162 -37 -184 -89 -23 -56
6 -235 48 -296 20 -30 74 -44 97 -26 19 16 76 147 86 196 6 30 15 40 15 17 0
-35 52 -116 78 -123 47 -12 69 52 25 72 -14 6 -26 25 -33 55 -7 25 -16 56 -21
70 -5 14 -11 47 -14 74 -3 27 -6 50 -8 51 -9 8 -45 14 -50 9z m-25 -104 c-5
-42 -45 -156 -78 -218 -13 -25 -24 -42 -24 -38 0 3 1 7 2 9 1 1 -4 12 -11 25
-18 33 -33 190 -20 213 15 28 60 49 99 46 34 -2 35 -3 32 -37z"/>
<path d="M3090 4201 c-5 -11 -10 -42 -10 -70 0 -44 3 -51 19 -51 28 0 30 8 24
78 -6 64 -15 76 -33 43z"/>
<path d="M4766 4177 c-14 -10 -17 -22 -14 -47 6 -43 -77 -310 -96 -310 -8 0
-35 10 -62 22 -46 20 -96 34 -154 43 -14 2 -41 7 -60 10 -43 7 -59 -3 -66 -39
-3 -21 0 -29 13 -32 18 -5 43 -46 43 -71 0 -7 3 -13 8 -13 4 0 18 -35 30 -77
51 -170 66 -194 100 -159 14 14 15 20 3 49 -7 17 -17 58 -22 90 -5 33 -15 73
-23 90 -8 18 -17 44 -20 59 l-6 26 61 -14 c33 -8 69 -19 79 -24 10 -6 27 -10
36 -10 10 0 25 -6 33 -14 25 -22 60 -29 65 -14 2 7 20 65 40 128 20 63 39 130
42 148 4 17 10 32 15 32 18 0 90 -88 103 -125 17 -49 126 -97 147 -64 14 22
11 26 -19 37 -27 9 -92 92 -92 117 0 6 -13 24 -30 40 -16 16 -30 34 -30 41 0
20 -81 94 -102 94 -2 0 -12 -6 -22 -13z"/>
<path d="M7270 3859 c-82 -7 -441 -58 -625 -89 -33 -5 -84 -10 -113 -10 -52 0
-100 -15 -212 -67 -66 -31 -232 -85 -326 -108 -38 -9 -94 -22 -125 -30 -30 -8
-66 -15 -78 -15 -13 0 -39 -7 -59 -16 -21 -9 -46 -20 -57 -25 -11 -5 -65 -26
-120 -48 -55 -21 -103 -45 -107 -53 -4 -7 -19 -38 -32 -69 -90 -203 -290 -339
-500 -339 -55 0 -66 -3 -79 -22 -15 -23 -15 -22 -22 20 -4 23 -11 45 -16 47
-4 3 -19 -11 -33 -32 -85 -124 -242 -230 -356 -238 -53 -3 -55 -4 -61 -37 -3
-18 -11 -46 -18 -61 -6 -16 -11 -37 -11 -47 0 -10 -14 -41 -31 -69 -17 -28
-29 -57 -26 -65 7 -18 78 -39 109 -31 13 3 40 7 62 9 109 13 255 134 319 266
20 41 43 102 52 134 8 32 17 61 20 64 3 3 5 -32 5 -77 0 -184 -128 -390 -291
-468 -77 -37 -133 -53 -185 -53 -45 0 -140 21 -169 37 -16 10 -28 4 -80 -39
-68 -58 -146 -98 -190 -98 -33 0 -119 33 -177 67 -47 27 -90 86 -139 188 -51
106 -72 190 -73 301 l-1 91 -80 -2 c-55 -1 -91 -7 -114 -19 -22 -12 -73 -21
-145 -27 -122 -10 -257 -24 -441 -44 -267 -31 -693 -11 -895 40 -52 14 -322
55 -356 55 -15 0 -15 -2 0 -22 9 -13 22 -34 28 -48 7 -14 23 -39 35 -56 13
-17 23 -35 23 -40 0 -5 11 -22 25 -38 14 -16 25 -33 25 -38 0 -4 8 -16 18 -26
16 -17 76 -97 97 -131 6 -9 20 -27 31 -41 12 -14 55 -65 96 -115 100 -121 280
-301 403 -404 55 -45 110 -91 123 -102 12 -10 26 -19 30 -19 5 0 19 -11 32
-25 13 -14 47 -40 74 -57 28 -17 60 -40 72 -50 20 -17 132 -88 140 -88 2 0 23
-14 46 -30 22 -17 45 -30 50 -30 6 0 22 -8 36 -19 31 -21 158 -86 247 -125 33
-15 74 -33 90 -41 29 -13 132 -53 280 -109 39 -14 77 -26 85 -26 7 0 50 -11
94 -25 128 -39 337 -81 516 -105 150 -20 197 -22 520 -18 382 4 433 9 720 69
80 17 180 42 222 55 43 13 84 24 93 24 15 0 43 10 250 90 200 77 416 184 580
286 17 11 46 28 64 39 58 35 296 208 304 222 4 7 13 13 18 13 6 0 23 12 38 28
15 15 75 69 134 121 140 123 369 372 457 499 24 34 47 62 51 62 4 0 10 11 13
25 4 14 10 25 15 25 5 0 26 28 47 63 21 34 42 65 47 68 5 3 8 8 6 10 -2 4 12
29 67 114 41 63 204 392 204 411 0 4 12 32 26 62 14 30 28 65 30 77 2 12 14
44 26 71 11 27 23 58 24 69 2 11 16 60 33 110 20 60 26 94 20 102 -6 6 -29 15
-52 18 -23 4 -49 11 -57 15 -9 5 -61 16 -115 24 -55 9 -138 23 -185 31 -93 16
-356 18 -520 4z"/>
<path d="M1748 3789 c-23 -23 -38 -49 -38 -64 0 -23 -41 -168 -60 -210 -5 -11
-15 -42 -22 -70 -12 -43 -12 -55 2 -90 22 -57 28 -65 54 -65 39 0 54 33 32 68
-4 7 -3 19 4 27 6 8 9 18 6 24 -3 5 -1 22 6 38 6 15 13 38 14 51 2 13 12 39
23 58 12 19 21 44 21 55 0 11 10 35 23 52 22 29 47 98 47 126 0 9 -59 42 -72
41 -2 -1 -20 -19 -40 -41z"/>
<path d="M3726 3719 c-47 -37 -79 -128 -91 -260 -4 -46 13 -93 48 -131 28 -30
125 -64 140 -49 5 5 16 7 23 4 8 -3 14 0 14 6 0 6 6 8 14 5 7 -3 16 2 19 10 4
9 11 16 16 16 5 0 20 9 33 19 12 11 39 34 59 51 57 47 107 172 78 191 -26 16
-59 10 -59 -10 0 -31 -30 -93 -60 -123 -35 -35 -140 -88 -173 -88 -54 0 -75
75 -51 189 15 73 37 111 65 111 22 0 49 -22 49 -39 0 -6 14 -18 31 -27 30 -15
33 -15 52 4 22 22 17 72 -6 72 -8 0 -20 15 -28 33 -14 31 -16 32 -80 35 -55 2
-70 -1 -93 -19z"/>
<path d="M2071 3631 c-84 -34 -114 -88 -86 -154 19 -45 15 -43 165 -123 14 -8
36 -14 50 -14 14 0 40 -13 59 -29 l35 -29 -70 -6 c-105 -10 -210 12 -251 52
-48 49 -113 41 -113 -14 0 -13 11 -31 25 -42 27 -21 150 -63 200 -67 17 -2 48
-6 70 -9 64 -9 189 21 220 54 21 22 24 31 16 52 -13 34 -55 65 -105 79 -22 7
-66 24 -96 38 -30 14 -60 26 -67 26 -16 0 -73 43 -73 56 0 26 54 58 117 69 59
10 68 9 76 -5 6 -12 12 -13 22 -5 9 8 15 8 20 0 13 -20 51 -11 64 16 10 23 9
30 -8 48 -18 19 -32 22 -123 23 -79 2 -113 -2 -147 -16z"/>
<path d="M2655 3633 c-33 -8 -56 -35 -82 -93 -67 -151 -69 -155 -83 -220 -19
-89 -12 -119 37 -153 37 -26 45 -28 73 -19 17 6 45 22 62 34 57 44 158 141
163 159 10 31 27 22 20 -9 -8 -40 11 -151 30 -172 22 -24 57 -22 91 5 l28 22
-23 31 c-12 18 -26 32 -31 32 -5 0 -7 12 -6 28 2 15 7 65 10 112 4 47 12 106
18 131 10 41 9 49 -8 67 -12 13 -36 22 -69 25 -27 3 -63 10 -78 16 -28 11
-114 13 -152 4z m182 -82 c22 -18 22 -21 8 -54 -19 -45 -135 -163 -213 -216
-55 -37 -86 -45 -62 -15 6 6 10 16 8 20 -4 17 15 80 42 139 15 33 30 71 33 85
4 14 19 33 34 42 39 24 121 23 150 -1z"/>
<path d="M3244 3626 c-54 -24 -109 -124 -133 -243 -12 -57 3 -119 37 -156 24
-26 111 -67 118 -56 3 6 14 7 25 4 11 -4 19 -2 19 5 0 6 4 9 9 5 11 -6 112 47
162 86 48 38 98 132 83 156 -22 36 -48 26 -73 -27 -14 -28 -40 -62 -59 -76
-29 -23 -156 -74 -183 -74 -4 0 -19 12 -33 27 -22 23 -24 33 -19 77 6 52 19
93 52 156 14 27 26 36 50 38 25 3 31 -1 37 -23 3 -14 19 -35 35 -46 28 -20 31
-20 55 -4 19 12 23 21 18 38 -4 12 -11 25 -17 29 -6 3 -15 21 -21 40 -9 27
-17 34 -46 39 -19 3 -46 9 -60 12 -14 4 -39 0 -56 -7z"/>
<path d="M5210 3295 c-47 -13 -116 -35 -155 -50 -38 -15 -101 -37 -140 -51
-96 -33 -123 -75 -70 -110 23 -15 32 -15 113 -1 115 22 214 71 286 144 63 63
85 93 64 92 -7 0 -51 -11 -98 -24z"/>
<path d="M4600 3064 c-154 -79 -237 -111 -326 -124 -43 -7 -90 -14 -103 -17
l-25 -4 30 -29 c16 -15 31 -28 34 -27 3 0 12 -2 20 -6 51 -19 128 -25 167 -13
12 4 31 9 43 11 80 15 202 118 253 213 16 28 25 52 20 51 -4 -1 -55 -25 -113
-55z"/>
<path d="M3928 2885 c-58 -8 -139 -15 -180 -18 l-73 -5 0 -98 c1 -231 110
-396 264 -401 31 -1 67 5 82 13 36 18 111 105 144 166 32 58 86 209 79 220 -3
4 -31 21 -64 39 -32 17 -77 47 -99 65 -21 19 -41 33 -43 33 -1 -1 -51 -7 -110
-14z"/>
</g>
</svg>
